{"title":"Dabangg 2 Hindi (2012) DVDSCREENER x264-iNDYTorrenTs","uid":7966853,"size":1562400679,"categoryP":"video","categoryS":"movies","magnet":"?xt=urn:btih:e3d7eb2acbc22e704c9643d954dfcfd04f4900df&amp;dn=Dabangg+2+Hindi+%282012%29+DVDSCREENER+x264-iNDYTorrenTs&amp;tr=udp%3A%2F%2Ftracker.openbittorrent.com%3A80&amp;tr=udp%3A%2F%2Fopen.demonii.com%3A1337&amp;tr=udp%3A%2F%2Ftracker.coppersurfer.tk%3A6969&amp;tr=udp%3A%2F%2Fexodus.desync.com%3A6969","seeders":1,"leechers":0,"uploader":"TorrentXXLS","files":-1,"time":1356705884,"description":"Screenshots:\n &lt;a href=&quot;\nhttp://imageshack.us/a/img96/2528/dabangg2poster.jpg&quot; rel=&quot;nofollow&quot; target=&quot;_NEW&quot;&gt;\nhttp://imageshack.us/a/img96/2528/dabangg2poster.jpg&lt;/a&gt; &lt;a href=&quot;\nhttp://imageshack.us/a/img703/2874/vlcsnap2012122814h29m18.png&quot; rel=&quot;nofollow&quot; target=&quot;_NEW&quot;&gt;\nhttp://imageshack.us/a/img703/2874/vlcsnap2012122814h29m18.png&lt;/a&gt; &lt;a href=&quot;\nhttp://imageshack.us/a/img827/9104/vlcsnap2012122814h29m13.png&quot; rel=&quot;nofollow&quot; target=&quot;_NEW&quot;&gt;\nhttp://imageshack.us/a/img827/9104/vlcsnap2012122814h29m13.png&lt;/a&gt; &lt;a href=&quot;\nhttp://imageshack.us/a/img407/5530/vlcsnap2012122814h29m09.png&quot; rel=&quot;nofollow&quot; target=&quot;_NEW&quot;&gt;\nhttp://imageshack.us/a/img407/5530/vlcsnap2012122814h29m09.png&lt;/a&gt; &lt;a href=&quot;\nhttp://imageshack.us/a/img404/1773/vlcsnap2012122814h29m06.png&quot; rel=&quot;nofollow&quot; target=&quot;_NEW&quot;&gt;\nhttp://imageshack.us/a/img404/1773/vlcsnap2012122814h29m06.png&lt;/a&gt; &lt;a href=&quot;\nhttp://imageshack.us/a/img407/5181/vlcsnap2012122814h29m01.png&quot; rel=&quot;nofollow&quot; target=&quot;_NEW&quot;&gt;\nhttp://imageshack.us/a/img407/5181/vlcsnap2012122814h29m01.png&lt;/a&gt;\n\nNFO:\n\nRelease Date: 21 Dec 2012\nGenre: Action - Comedy\nLanguage: Hindi\nCertification: U/A\nDirector: Arbaaz Khan\nProducer: Arbaaz Khan\nCast: Salman Khan as Chulbul Pandey \nSonakshi Sinha as Rajjo Pandey\n\nDabangg 2 is the sequel to the 2010 blockbuster film Dabangg. The plot moved away from the UP hinterland to probably Kanpur.\n\nThe film will feature Salman Khan and Sonakshi Sinha reprising their roles from the previous film, whilst Prakash Raj plays the main antagonist. \n\nIn Dabangg 2, Chulbul Pandey has to battle the evil goon turned politician Baccha Bhaiyya. As he tries to strengthen his family ties with his father and brother. And romance his newly wed wife. And remain 'Dabangg' (fearless) no matter what.\n\nFormat : MPEG-4\nFormat profile : Base Media\nCodec ID : isom\nFile size : 1.45 GiB\nDuration : 2h 1mn\nOverall bit rate mode : Variable\nOverall bit rate : 1 713 Kbps\nMovie name : Video_Dabangg 2 (2012)\n\n\nVideo\nID : 1\nFormat : MPEG-4 Visual\nFormat profile : Simple@L1\nFormat settings, BVOP : No\nFormat settings, QPel : No\nFormat settings, GMC : No warppoints\nFormat settings, Matrix : Default (H.263)\nCodec ID : 20\nDuration : 2h 1mn\nBit rate : 1 600 Kbps\nWidth : 640 pixels\nHeight : 272 pixels\nDisplay aspect ratio : 2.35:1\nFrame rate mode : Constant\nFrame rate : 23.976 fps\nColor space : YUV\nChroma subsampling : 4:2:0\nBit depth : 8 bits\nScan type : Progressive\nCompression mode : Lossy\nBits/(Pixel*Frame) : 0.383\nStream size : 1.35 GiB (93%)\n\nAudio\nID : 2\nFormat : AAC\nFormat/Info : Advanced Audio Codec\nFormat profile : LC\nCodec ID : 40\nDuration : 2h 1mn\nBit rate mode : Variable\nBit rate : 110 Kbps\nChannel(s) : 2 channels\nChannel positions : Front: L R\nSampling rate : 32.0 KHz\nCompression mode : Lossy\nStream size : 95.5 MiB (6%)","torrent":{"xt":"urn:btih:e3d7eb2acbc22e704c9643d954dfcfd04f4900df","amp;dn":"Dabangg+2+Hindi+%282012%29+DVDSCREENER+x264-iNDYTorrenTs","amp;tr":["udp%3A%2F%2Ftracker.openbittorrent.com%3A80","udp%3A%2F%2Fopen.demonii.com%3A1337","udp%3A%2F%2Ftracker.coppersurfer.tk%3A6969","udp%3A%2F%2Fexodus.desync.com%3A6969"],"infoHash":"e3d7eb2acbc22e704c9643d954dfcfd04f4900df","infoHashBuffer":{"type":"Buffer","data":[227,215,235,42,203,194,46,112,76,150,67,217,84,223,207,208,79,73,0,223]},"announce":[],"urlList":[]}}